<?xml version="1.0" encoding="iso-8859-1"?>
<!-- Uploaded to: SVG Repo, www.svgrepo.com, Generator: SVG Repo Mixer Tools -->
<svg height="800px" width="800px" version="1.1" id="Layer_1" xmlns="http://www.w3.org/2000/svg" xmlns:xlink="http://www.w3.org/1999/xlink" 
	 viewBox="0 0 512 512" xml:space="preserve">
<g>
	<g>
		<path style="fill:#5ABA63;" d="M230.399,201.871c-2.219,0-4.403-0.87-6.033-2.5L123.434,98.438
			c-8.055-8.055-12.501-18.773-12.501-30.174s4.446-22.11,12.501-30.165c8.055-8.064,18.765-12.501,30.165-12.501
			c11.401,0,22.11,4.437,30.165,12.501l52.668,52.659c1.604,1.604,2.5,3.772,2.5,6.042v96.538c0,3.447-2.074,6.562-5.265,7.885
			C232.609,201.657,231.5,201.871,230.399,201.871"/>
		<path style="fill:#5ABA63;" d="M298.666,242.092c-1.135,0-2.27-0.222-3.354-0.683c-3.14-1.34-5.18-4.437-5.18-7.851v-94.515
			c0-2.33,0.947-4.557,2.637-6.161l9.993-9.583c7.927-7.927,18.637-12.365,30.037-12.365s22.11,4.437,30.165,12.493
			c8.055,8.064,12.501,18.773,12.501,30.174c0,11.392-4.446,22.11-12.501,30.174l-58.402,55.945
			C302.949,241.272,300.825,242.092,298.666,242.092"/>
	</g>
	<path style="fill:#91CF96;" d="M298.666,307.2h-68.267c-4.719,0-8.533-3.823-8.533-8.533v-256C221.866,19.14,241.006,0,264.532,0
		c23.526,0,42.667,19.14,42.667,42.667v256C307.199,303.377,303.385,307.2,298.666,307.2"/>
	<path style="fill:#5ABA63;" d="M295.649,37.154c-2.185,0-4.369-0.836-6.033-2.5c-3.337-3.328-3.337-8.73,0-12.066l11.546-11.554
		c3.337-3.337,8.738-3.337,12.075,0c3.328,3.328,3.328,8.73,0,12.066l-11.554,11.554C300.018,36.318,297.834,37.154,295.649,37.154"
		/>
	<path style="fill:#91CF96;" d="M187.732,62.663c-4.719,0-8.533-3.823-8.533-8.533V25.603c0-4.719,3.814-8.533,8.533-8.533
		s8.533,3.814,8.533,8.533v28.527C196.266,58.84,192.451,62.663,187.732,62.663"/>
	<g>
		<path style="fill:#5ABA63;" d="M255.999,93.867c-4.719,0-8.533-3.823-8.533-8.533v-25.6c0-4.71,3.814-8.533,8.533-8.533
			c4.719,0,8.533,3.823,8.533,8.533v25.6C264.532,90.044,260.718,93.867,255.999,93.867"/>
		<path style="fill:#5ABA63;" d="M273.066,264.533c-4.719,0-8.533-3.823-8.533-8.533v-34.133c0-4.71,3.814-8.533,8.533-8.533
			s8.533,3.823,8.533,8.533V256C281.599,260.71,277.785,264.533,273.066,264.533"/>
	</g>
	<g>
		<path style="fill:#91CF96;" d="M332.799,128c-4.719,0-8.533-3.823-8.533-8.533V102.4c0-4.71,3.814-8.533,8.533-8.533
			s8.533,3.823,8.533,8.533v17.067C341.332,124.177,337.518,128,332.799,128"/>
		<path style="fill:#91CF96;" d="M366.941,156.446c-2.756,0-5.47-1.331-7.108-3.797c-2.62-3.925-1.562-9.225,2.364-11.836
			l17.067-11.383c3.934-2.62,9.225-1.553,11.836,2.372c2.62,3.917,1.562,9.216-2.364,11.836l-17.067,11.375
			C370.209,155.985,368.562,156.446,366.941,156.446"/>
		<path style="fill:#91CF96;" d="M190.658,162.133h-37.06c-4.719,0-8.533-3.823-8.533-8.533s3.814-8.533,8.533-8.533h37.06
			c4.719,0,8.533,3.823,8.533,8.533S195.377,162.133,190.658,162.133"/>
	</g>
	<path style="fill:#5ABA63;" d="M264.532,162.133c-4.719,0-8.533-3.823-8.533-8.533v-17.067c0-4.71,3.814-8.533,8.533-8.533
		c4.719,0,8.533,3.823,8.533,8.533V153.6C273.066,158.31,269.251,162.133,264.532,162.133"/>
	<g>
		<path style="fill:#91CF96;" d="M119.466,76.804c-0.887,0-1.801-0.145-2.697-0.444l-25.6-8.533
			c-4.471-1.493-6.886-6.323-5.393-10.795c1.485-4.463,6.289-6.886,10.786-5.393l25.6,8.533c4.471,1.493,6.886,6.323,5.393,10.795
			C126.369,74.543,123.041,76.804,119.466,76.804"/>
		<path style="fill:#91CF96;" d="M179.199,93.867c-2.185,0-4.369-0.836-6.033-2.5L156.099,74.3c-3.337-3.337-3.337-8.73,0-12.066
			c3.337-3.337,8.73-3.337,12.066,0L185.232,79.3c3.337,3.337,3.337,8.73,0,12.066C183.568,93.03,181.384,93.867,179.199,93.867"/>
		<path style="fill:#91CF96;" d="M230.399,162.133c-2.185,0-4.369-0.836-6.033-2.5l-25.6-25.6c-3.337-3.337-3.337-8.73,0-12.066
			s8.73-3.337,12.066,0l25.6,25.6c3.337,3.337,3.337,8.73,0,12.066C234.768,161.297,232.584,162.133,230.399,162.133"/>
		<path style="fill:#91CF96;" d="M298.666,204.8c-2.185,0-4.369-0.836-6.033-2.5c-3.337-3.337-3.337-8.73,0-12.066l25.6-25.6
			c3.337-3.337,8.73-3.337,12.066,0c3.337,3.337,3.337,8.73,0,12.066l-25.6,25.6C303.035,203.964,300.85,204.8,298.666,204.8"/>
	</g>
	<g>
		<path style="fill:#5ABA63;" d="M230.399,256c-2.185,0-4.369-0.836-6.033-2.5l-17.067-17.067c-3.337-3.337-3.337-8.73,0-12.066
			s8.73-3.337,12.066,0l17.067,17.067c3.337,3.337,3.337,8.73,0,12.066C234.768,255.164,232.584,256,230.399,256"/>
		<path style="fill:#5ABA63;" d="M315.732,273.067h-17.067c-4.719,0-8.533-3.823-8.533-8.533c0-4.71,3.814-8.533,8.533-8.533h17.067
			c4.719,0,8.533,3.823,8.533,8.533C324.266,269.244,320.451,273.067,315.732,273.067"/>
		<path style="fill:#5ABA63;" d="M230.399,59.733c-2.185,0-4.369-0.836-6.033-2.5l-17.067-17.067c-3.337-3.337-3.337-8.73,0-12.066
			s8.73-3.337,12.066,0l17.067,17.067c3.337,3.337,3.337,8.73,0,12.066C234.768,58.897,232.584,59.733,230.399,59.733"/>
	</g>
	<polygon style="fill:#AF8066;" points="153.599,503.467 375.466,503.467 375.466,332.8 153.599,332.8 	"/>
	<g>
		<polygon style="fill:#D9AA94;" points="375.466,409.6 315.732,469.333 264.532,418.133 213.332,469.333 153.599,409.6 
			153.599,358.4 213.332,418.133 264.532,366.933 315.732,418.133 375.466,358.4 		"/>
		<polygon style="fill:#D9AA94;" points="145.066,332.8 383.999,332.8 383.999,298.667 145.066,298.667 		"/>
	</g>
	<path style="fill:#F0EDE0;" d="M418.132,512h-307.2c-4.71,0-8.533-3.823-8.533-8.533c0-4.71,3.823-8.533,8.533-8.533h307.2
		c4.719,0,8.533,3.823,8.533,8.533C426.666,508.177,422.851,512,418.132,512"/>
</g>
</svg>