<?xml version="1.0" encoding="iso-8859-1"?>
<!-- Uploaded to: SVG Repo, www.svgrepo.com, Generator: SVG Repo Mixer Tools -->
<svg height="800px" width="800px" version="1.1" id="Layer_1" xmlns="http://www.w3.org/2000/svg" xmlns:xlink="http://www.w3.org/1999/xlink" 
	 viewBox="0 0 511.964 511.964" xml:space="preserve">
<g>
	<g>
		<path style="fill:#5ABA63;" d="M255.982,290.097c-4.719,0-8.533-3.823-8.533-8.533V93.831c0-4.71,3.814-8.533,8.533-8.533
			c4.719,0,8.533,3.823,8.533,8.533v187.733C264.515,286.274,260.701,290.097,255.982,290.097"/>
		<path style="fill:#5ABA63;" d="M255.982,230.364c-4.719,0-8.533-3.823-8.533-8.533c0-47.292,29.815-102.263,68.267-102.263
			c4.719,0,8.533,3.823,8.533,8.533c0,4.71-3.814,8.533-8.533,8.533c-27.571,0-51.2,46.848-51.2,85.197
			C264.515,226.541,260.701,230.364,255.982,230.364"/>
		<path style="fill:#5ABA63;" d="M255.982,252.877c-4.719,0-8.533-3.823-8.533-8.533c0-39.552-19.575-82.244-51.2-82.244
			c-4.719,0-8.533-3.823-8.533-8.533s3.814-8.533,8.533-8.533c42.735,0,68.267,50.492,68.267,99.311
			C264.515,249.054,260.701,252.877,255.982,252.877"/>
		<path style="fill:#5ABA63;" d="M255.973,102.364c-4.19,0-7.842-3.081-8.439-7.347c-0.094-0.666-0.111-1.323-0.051-1.963
			l-0.017-1.203c-0.691-36.873,7.236-60.527,23.561-70.306c12.715-7.629,29.175-5.922,48.853,5.103
			c4.122,2.304,5.589,7.501,3.285,11.614s-7.518,5.581-11.614,3.285c-13.969-7.817-24.661-9.617-31.761-5.359
			c-6.016,3.601-16,15.59-15.258,55.339c0.119,6.434-2.355,10.052-7.364,10.752C256.767,102.338,256.366,102.364,255.973,102.364"/>
		<path style="fill:#5ABA63;" d="M255.99,102.364c-0.162,0-0.316,0-0.486-0.017c-4.693-0.256-8.294-4.284-8.038-8.986
			c1.289-23.62-2.577-64.64-18.475-74.155c-6.69-3.985-16.196-2.27-28.297,5.111c-4.002,2.449-9.267,1.186-11.725-2.842
			c-2.466-4.028-1.186-9.276,2.842-11.733c17.954-10.94,33.425-12.672,45.943-5.171c29.858,17.869,27.153,82.432,26.743,89.737
			C264.251,98.848,260.479,102.364,255.99,102.364"/>
	</g>
	<path style="fill:#864D18;" d="M279.606,292.929c-3.814-6.127-13.235-11.366-23.62-11.366c0-14.14-11.469-25.6-25.6-25.6
		c-7.424,0-14.046,3.209-18.722,8.252c-3.61-9.771-12.919-16.785-23.945-16.785c-14.14,0-25.6,11.46-25.6,25.6
		c-14.601,0-26.342,12.211-25.566,26.982c0.725,13.841,13.15,24.218,27.008,24.218h211.891c0-14.14-11.469-25.6-25.6-25.6
		c0-14.14-11.469-25.6-25.6-25.6c-11.537,0-21.282,7.629-24.491,18.108c-1.382,4.531-5.734,7.492-10.479,7.492
		C285.255,298.629,281.739,296.35,279.606,292.929"/>
	<path style="fill:#7F5B53;" d="M426.649,344.944c0,7.415-6.007,13.423-13.423,13.423H98.738c-7.415,0-13.423-6.007-13.423-13.423
		v-7.296c0-7.407,6.007-13.414,13.423-13.414h314.487c7.415,0,13.423,6.007,13.423,13.414V344.944z"/>
	<polygon style="fill:#AF8066;" points="349.849,503.431 162.115,503.431 110.915,358.364 401.049,358.364 	"/>
	<path style="fill:#D9AA94;" d="M369.585,447.51l-16.631-9.634c-6.972-4.181-15.821-3.499-22.059,1.707l-12.979,10.812
		c-7.049,5.879-15.676,9.967-24.849,10.351c-8.704,0.367-16.512-2.099-20.924-7.407l-33.229-35.243
		c-10.129-10.129-18.313-10.624-33.314-4.437c-8.815,3.635-16.384,12.971-26.419,12.971c-12.134,0-20.83-4.557-25.6-8.533
		l-31.13-27.051l39.663,112.384h187.733L369.585,447.51z"/>
	<path style="fill:#7F5B53;" d="M409.582,511.964H93.849c-4.71,0-8.533-3.823-8.533-8.533c0-4.71,3.823-8.533,8.533-8.533h315.733
		c4.71,0,8.533,3.823,8.533,8.533C418.115,508.141,414.292,511.964,409.582,511.964"/>
	<g>
		<path style="fill:#D13834;" d="M392.515,110.897c-6.665,6.665-31.94-9.617-51.934-29.619
			c-19.994-19.994-31.531-40.516-24.866-47.181c6.665-6.665,29.005,3.055,49.007,23.049
			C384.716,77.139,399.18,104.233,392.515,110.897"/>
		<path style="fill:#D13834;" d="M196.249,17.031c6.665,6.665-2.074,25.421-22.067,45.414s-39.535,29.517-46.199,22.852
			c-6.665-6.665,2.074-26.991,22.067-46.985S189.584,10.366,196.249,17.031"/>
		<path style="fill:#D13834;" d="M196.249,153.298c-32.358,33.417-80.503,35.567-110.933,0.265
			C111.692,119.471,162.781,119.42,196.249,153.298"/>
		<path style="fill:#D13834;" d="M392.515,204.9c-42.453,0-76.8-34.347-76.8-76.8C358.169,128.1,392.515,162.447,392.515,204.9"/>
	</g>
</g>
</svg>