<?xml version="1.0" encoding="iso-8859-1"?>
<!-- Uploaded to: SVG Repo, www.svgrepo.com, Generator: SVG Repo Mixer Tools -->
<svg height="800px" width="800px" version="1.1" id="Layer_1" xmlns="http://www.w3.org/2000/svg" xmlns:xlink="http://www.w3.org/1999/xlink" 
	 viewBox="0 0 512.064 512.064" xml:space="preserve">
<g transform="translate(0 -1)">
	<g>
		<path style="fill:#91CF96;" d="M244.629,111.019c-37.094,0-65.28-9.472-83.823-28.186c-25.318-25.54-24.559-59.981-24.311-71.296
			l0.034-1.929c0-4.719,3.814-8.533,8.533-8.533l1.365-0.034c44.058-0.93,69.248,14.165,82.56,27.145
			c17.929,17.485,27.008,42.479,27.008,74.283c0,4.659-3.746,8.465-8.414,8.533C246.583,111.01,245.601,111.019,244.629,111.019"/>
		<path style="fill:#91CF96;" d="M307.162,248.522c-4.719,0-8.533-3.823-8.533-8.533c0-31.138,9.105-55.834,27.085-73.395
			c14.182-13.867,41.344-30.106,90.675-29.022l1.707,0.026c4.719,0,8.533,3.823,8.533,8.533l0.051,2.688
			c0.307,12.032,1.109,43.998-22.912,68.625C383.672,238.069,351.16,248.522,307.162,248.522"/>
	</g>
	<path style="fill:#5ABA63;" d="M366.295,194.193c-1.732-4.395-6.724-6.511-11.068-4.796c-16.913,6.682-44.544,33.536-53.82,44.22
		c-9.822,6.485-18.662,15.3-26.53,24.363c10.095-42.615,12.16-99.447-19.123-157.261c-0.256-1.203-0.708-2.372-1.502-3.413
		c-15.906-20.932-32.947-36.378-53.649-48.614c-4.045-2.389-9.284-1.05-11.682,2.995c-2.398,4.062-1.058,9.293,2.995,11.691
		c18.21,10.769,33.331,24.448,47.505,42.735c0.077,0.171,0.068,0.35,0.154,0.503c60.015,107.733-7.108,212.992-7.791,214.042
		c-2.569,3.942-1.468,9.224,2.475,11.802c1.442,0.947,3.063,1.399,4.668,1.399c2.773,0,5.504-1.357,7.142-3.857
		c0.222-0.341,6.818-10.684,14.268-28.049c0.29-0.23,0.631-0.341,0.896-0.614c3.78-3.849,8.013-9.225,12.911-15.445
		c10.385-13.201,23.313-29.628,37.589-38.69c0.452-0.29,0.742-0.717,1.118-1.067c0.256-0.239,0.597-0.35,0.828-0.631
		c9.301-10.999,35.166-35.234,47.821-40.235C365.877,203.537,368.027,198.579,366.295,194.193"/>
	<path style="fill:#7F5B53;" d="M426.628,346.044c0,7.415-6.007,13.423-13.423,13.423H98.718c-7.415,0-13.423-6.008-13.423-13.423
		v-7.296c0-7.407,6.007-13.414,13.423-13.414h314.487c7.415,0,13.423,6.007,13.423,13.414V346.044z"/>
	<polygon style="fill:#AF8066;" points="349.828,504.531 162.095,504.531 110.895,359.464 401.028,359.464 	"/>
	<path style="fill:#D9AA94;" d="M369.565,448.61l-16.631-9.634c-6.972-4.181-15.821-3.499-22.059,1.707l-12.979,10.812
		c-7.049,5.879-15.676,9.967-24.849,10.351c-8.704,0.367-16.512-2.099-20.924-7.407l-33.229-35.243
		c-10.129-10.129-18.313-10.624-33.314-4.437c-8.815,3.635-16.384,12.971-26.419,12.971c-12.134,0-20.83-4.557-25.6-8.533
		l-31.13-27.051l39.663,112.384h187.733L369.565,448.61z"/>
	<path style="fill:#7F5B53;" d="M409.562,513.064H93.828c-4.71,0-8.533-3.823-8.533-8.533s3.823-8.533,8.533-8.533h315.733
		c4.71,0,8.533,3.823,8.533,8.533S414.272,513.064,409.562,513.064"/>
</g>
</svg>