<?xml version="1.0" encoding="iso-8859-1"?>
<!-- Uploaded to: SVG Repo, www.svgrepo.com, Generator: SVG Repo Mixer Tools -->
<svg height="800px" width="800px" version="1.1" id="Layer_1" xmlns="http://www.w3.org/2000/svg" xmlns:xlink="http://www.w3.org/1999/xlink" 
	 viewBox="0 0 512 512" xml:space="preserve">
<g>
	<polygon style="fill:#AF8066;" points="151.864,503.322 377.492,503.322 377.492,329.763 151.864,329.763 	"/>
	<g>
		<polygon style="fill:#D9AA94;" points="377.492,407.864 316.746,468.61 264.678,416.542 212.61,468.61 151.864,407.864 
			151.864,355.797 212.61,416.542 264.678,364.475 316.746,416.542 377.492,355.797 		"/>
		<polygon style="fill:#D9AA94;" points="143.186,329.763 386.169,329.763 386.169,295.051 143.186,295.051 		"/>
	</g>
	<path style="fill:#F0EDE0;" d="M420.881,512H108.475c-4.79,0-8.678-3.888-8.678-8.678s3.888-8.678,8.678-8.678h312.407
		c4.79,0,8.678,3.888,8.678,8.678S425.672,512,420.881,512"/>
	<path style="fill:#91CF96;" d="M125.831,260.339c24.628-45.316,87.161-77.303,138.726-70.621l8.799,1.198
		C248.728,236.232,177.395,267.021,125.831,260.339"/>
	<path style="fill:#5ABA63;" d="M273.356,190.915L273.356,190.915c54.515,5.137,121.778-26.841,156.203-69.424
		C375.044,116.354,307.781,148.332,273.356,190.915"/>
	<g>
		<path style="fill:#91CF96;" d="M307.826,189.664c-11.897,1.848-23.457,2.013-34.469,1.25
			c22.927,37.845,77.555,66.439,121.492,60.746C378.864,222.258,342.642,197.188,307.826,189.664"/>
		<path style="fill:#91CF96;" d="M169.22,0c63.662,34.538,113.43,118.775,104.136,190.915C209.694,156.377,169.22,80.271,169.22,0"
			/>
	</g>
	<path style="fill:#5ABA63;" d="M224.837,152.157c-44.093-26.26-100.543-43.286-142.397-39.346l0,0
		c30.599,37.853,87.361,70.89,140.305,79.108h0.017c14.067-3.037,28.281-3.957,41.793-2.204l8.799,1.198
		C255.783,181.376,239.347,167.968,224.837,152.157"/>
	<path style="fill:#B49377;" d="M283.155,204.37c-3.688-4.313-6.986-8.817-9.797-13.46c-2.734,5.033-6.109,9.832-9.884,14.457
		l-7.472,89.678h34.712L283.155,204.37z"/>
</g>
</svg>