<?xml version="1.0" encoding="iso-8859-1"?>
<!-- Uploaded to: SVG Repo, www.svgrepo.com, Generator: SVG Repo Mixer Tools -->
<svg height="800px" width="800px" version="1.1" id="Layer_1" xmlns="http://www.w3.org/2000/svg" xmlns:xlink="http://www.w3.org/1999/xlink" 
	 viewBox="0 0 512 512" xml:space="preserve">
<g>
	<path style="fill:#91CF96;" d="M294.866,247.172h39.097c30.835-83.765,21.716-183.958,63.276-238.345
		c-25.194,0.203-69.826,37.57-102.02,100.732C301.76,154.227,301.875,203.785,294.866,247.172"/>
	<path style="fill:#5ABA63;" d="M294.898,247.172C309.057,159.417,294.006,46.318,256.004,0
		c-38.391,43.811-53.336,157.881-38.409,247.172H294.898z"/>
	<g>
		<path style="fill:#91CF96;" d="M217.611,247.172c-7.336-43.847-7.468-93.652-1.139-138.214
			C184.296,46.159,139.876,9.031,114.761,8.828c41.56,54.387,32.441,154.58,63.276,238.345H217.611z"/>
		<path style="fill:#91CF96;" d="M256,255.879c-4.873,0-8.828-3.946-8.828-8.828V105.934c0-4.882,3.955-8.828,8.828-8.828
			s8.828,3.946,8.828,8.828v141.118C264.828,251.933,260.873,255.879,256,255.879"/>
	</g>
	<g>
		<polygon style="fill:#7F5B53;" points="70.621,291.31 441.379,291.31 441.379,247.172 70.621,247.172 		"/>
		<polygon style="fill:#7F5B53;" points="397.241,512 114.759,512 105.931,476.69 406.069,476.69 		"/>
	</g>
	<polygon style="fill:#AF8066;" points="375.172,476.69 406.069,291.31 105.931,291.31 136.828,476.69 	"/>
	<g>
		<path style="fill:#D9AA94;" d="M220.69,353.103h-8.828c-4.873,0-8.828-3.946-8.828-8.828c0-4.882,3.955-8.828,8.828-8.828h8.828
			c4.873,0,8.828,3.946,8.828,8.828C229.517,349.158,225.562,353.103,220.69,353.103"/>
		<path style="fill:#D9AA94;" d="M264.828,423.724H256c-4.873,0-8.828-3.946-8.828-8.828c0-4.882,3.955-8.828,8.828-8.828h8.828
			c4.873,0,8.828,3.946,8.828,8.828C273.655,419.778,269.7,423.724,264.828,423.724"/>
		<path style="fill:#D9AA94;" d="M386.895,406.356c-0.486-0.079-0.918-0.291-1.421-0.291h-85.336c-4.873,0-8.828,3.955-8.828,8.828
			c0,4.882,3.955,8.828,8.828,8.828h83.862L386.895,406.356z"/>
		<path style="fill:#D9AA94;" d="M176.552,335.448h-61.793c-0.503,0-0.945,0.203-1.421,0.291l2.895,17.364h60.319
			c4.873,0,8.828-3.946,8.828-8.828C185.379,339.394,181.425,335.448,176.552,335.448"/>
	</g>
</g>
</svg>